<?xml version="1.0" encoding="iso-8859-1"?>
<!-- Uploaded to: SVG Repo, www.svgrepo.com, Generator: SVG Repo Mixer Tools -->
<svg fill="#000000" height="800px" width="800px" version="1.1" id="Layer_1" xmlns="http://www.w3.org/2000/svg" xmlns:xlink="http://www.w3.org/1999/xlink" 
	 viewBox="0 0 512 512" xml:space="preserve">
<g>
	<g>
		<polygon points="216.073,49.951 266.024,124.878 512,124.878 512,49.951 		"/>
	</g>
</g>
<g>
	<g>
		<path d="M245.976,162.342l-74.927-112.39H0v412.098h512V162.342H245.976z M180.674,318.764l-22.403,14.611l-15.584-26.949
			l-15.585,26.949L104.7,318.764l15.907-25.325l-23.377-6.82l7.792-25.001l24.351,11.689l-2.273-26.623h31.17l-2.272,26.624
			l24.351-11.689l7.791,25.001l-23.377,6.82L180.674,318.764z M295.611,318.764l-22.403,14.611l-15.584-26.949l-15.585,26.949
			l-22.402-14.611l15.908-25.324l-23.377-6.82l7.792-25.001l24.351,11.689l-2.274-26.624h31.17l-2.272,26.624l24.351-11.689
			l7.791,25.001l-23.377,6.82L295.611,318.764z M410.549,318.764l-22.403,14.611l-15.583-26.949l-15.585,26.949l-22.402-14.611
			l15.908-25.324l-23.377-6.82l7.792-25.001l24.351,11.689l-2.273-26.624h31.17l-2.274,26.624l24.351-11.689l7.791,25.001
			l-23.377,6.82L410.549,318.764z"/>
	</g>
</g>
</svg>