<svg xmlns:xlink="http://www.w3.org/1999/xlink" xmlns="http://www.w3.org/2000/svg" width="108" height="38" viewBox="0 0 108 38" fill="none">
<path d="M5.33729 13.9058C8.763 13.9058 10.6746 11.8166 10.6746 8.71092V0.485644H8.00594V8.71092C8.00594 10.3861 7.04069 11.4401 5.33729 11.4401C3.6339 11.4401 2.66865 10.3861 2.66865 8.71092V0.485644H0V8.71092C0 11.8166 1.91158 13.9058 5.33729 13.9058Z" fill="#F16434"/>
<path d="M12.9152 13.6611H15.3756V12.6447C15.6406 12.9647 16.6248 13.9058 18.3092 13.9058C21.1482 13.9058 23.1544 11.7789 23.1544 8.74856C23.1544 5.69938 21.2996 3.57248 18.4607 3.57248C16.7573 3.57248 15.7731 4.51358 15.527 4.85238V0.0527344H12.9152V13.6611ZM15.4513 8.76739C15.4513 6.92282 16.5491 5.86878 17.9875 5.86878C19.5016 5.86878 20.5237 7.05457 20.5237 8.76739C20.5237 10.5178 19.4638 11.6095 17.9875 11.6095C16.3977 11.6095 15.4513 10.3296 15.4513 8.76739Z" fill="#F16434"/>
<path d="M24.1219 8.76739C24.1219 11.7225 26.1471 13.9058 29.3267 13.9058C31.7872 13.9058 33.112 12.4377 33.4906 11.7413L31.7683 10.4426C31.4844 10.8566 30.7084 11.6472 29.3646 11.6472C27.9072 11.6472 26.8474 10.7061 26.7906 9.38852H33.7556C33.7745 9.20029 33.7745 9.01207 33.7745 8.82385C33.7745 5.60527 32.0332 3.57248 28.9671 3.57248C26.1471 3.57248 24.1219 5.79349 24.1219 8.76739ZM26.8663 7.69452C26.9798 6.5652 27.7748 5.69938 29.005 5.69938C30.1974 5.69938 31.068 6.48991 31.1248 7.69452H26.8663Z" fill="#F16434"/>
<path d="M40.5046 3.57248C39.1987 3.57248 38.2145 4.26889 37.7792 5.24765V3.81716H35.2241V13.6611H37.836V9.36969C37.836 7.41219 38.5552 6.20757 40.5046 6.20757V3.57248Z" fill="#F16434"/>
<path d="M45.0726 13.9058C47.2113 13.9058 48.8769 12.7012 48.8769 10.7814C48.8769 7.26162 44.1831 8.0145 44.1831 6.45226C44.1831 5.96289 44.5994 5.66173 45.2051 5.66173C46.1325 5.66173 46.6814 6.2264 46.9842 6.60284L48.7065 5.32293C48.2333 4.55123 47.1924 3.57248 45.3187 3.57248C43.2935 3.57248 41.7226 4.66416 41.7226 6.48991C41.7226 9.99082 46.3975 9.40734 46.3975 10.9131C46.3975 11.4778 45.9243 11.7978 45.1862 11.7978C44.0695 11.7978 43.4071 11.2896 42.915 10.7249L41.3819 12.0801C41.9119 12.9271 43.1232 13.9058 45.0726 13.9058Z" fill="#F16434"/>
<path d="M53.6193 13.9058C54.9063 13.9058 55.8526 13.1906 56.269 12.513V13.6611H58.8241V3.81716H56.2122V9.72731C56.2122 10.7814 55.5309 11.5719 54.4521 11.5719C53.5625 11.5719 52.8054 10.8943 52.8054 9.8026V3.81716H50.1936V9.50145C50.1936 11.5907 50.7992 13.9058 53.6193 13.9058Z" fill="#F16434"/>
<path d="M61.5053 16.3715C62.3949 16.8609 63.7765 17.275 65.1392 17.275C68.0539 17.275 70.4576 16.0892 70.4576 12.4189V3.81716H67.9971V4.85238C67.7132 4.47594 66.7101 3.57248 65.0446 3.57248C62.2245 3.57248 60.2183 5.7182 60.2183 8.74856C60.2183 11.7789 62.092 13.9058 64.9499 13.9058C66.6723 13.9058 67.6375 12.9271 67.8457 12.6447V13.0965C67.8457 14.6211 66.5398 15.054 65.1203 15.054C63.7576 15.054 62.622 14.5458 62.3002 14.3764L61.5053 16.3715ZM67.9214 8.72974C67.9214 10.4802 66.8994 11.6095 65.3853 11.6095C63.909 11.6095 62.8491 10.4614 62.8491 8.72974C62.8491 6.9981 63.8901 5.86878 65.3663 5.86878C66.8994 5.86878 67.9214 7.05457 67.9214 8.72974Z" fill="#F16434"/>
<path d="M73.1496 16.3715C74.0391 16.8609 75.4208 17.275 76.7835 17.275C79.6982 17.275 82.1019 16.0892 82.1019 12.4189V3.81716H79.6414V4.85238C79.3575 4.47594 78.3544 3.57248 76.6889 3.57248C73.8688 3.57248 71.8626 5.7182 71.8626 8.74856C71.8626 11.7789 73.7363 13.9058 76.5942 13.9058C78.3165 13.9058 79.2818 12.9271 79.49 12.6447V13.0965C79.49 14.6211 78.1841 15.054 76.7646 15.054C75.4019 15.054 74.2663 14.5458 73.9445 14.3764L73.1496 16.3715ZM79.5657 8.72974C79.5657 10.4802 78.5437 11.6095 77.0295 11.6095C75.5533 11.6095 74.4934 10.4614 74.4934 8.72974C74.4934 6.9981 75.5343 5.86878 77.0106 5.86878C78.5437 5.86878 79.5657 7.05457 79.5657 8.72974Z" fill="#F16434"/>
<path d="M83.5447 8.76739C83.5447 11.7225 85.5699 13.9058 88.7495 13.9058C91.21 13.9058 92.5348 12.4377 92.9134 11.7413L91.1911 10.4426C90.9072 10.8566 90.1312 11.6472 88.7874 11.6472C87.33 11.6472 86.2701 10.7061 86.2134 9.38852H93.1783C93.1973 9.20029 93.1973 9.01207 93.1973 8.82385C93.1973 5.60527 91.456 3.57248 88.3899 3.57248C85.5699 3.57248 83.5447 5.79349 83.5447 8.76739ZM86.2891 7.69452C86.4026 6.5652 87.1975 5.69938 88.4278 5.69938C89.6201 5.69938 90.4908 6.48991 90.5475 7.69452H86.2891Z" fill="#F16434"/>
<path d="M97.6752 13.9058C99.8139 13.9058 101.479 12.7012 101.479 10.7814C101.479 7.26162 96.7856 8.0145 96.7856 6.45226C96.7856 5.96289 97.202 5.66173 97.8077 5.66173C98.7351 5.66173 99.2839 6.2264 99.5868 6.60284L101.309 5.32293C100.836 4.55123 99.795 3.57248 97.9212 3.57248C95.8961 3.57248 94.3252 4.66416 94.3252 6.48991C94.3252 9.99082 99 9.40734 99 10.9131C99 11.4778 98.5269 11.7978 97.7887 11.7978C96.6721 11.7978 96.0096 11.2896 95.5175 10.7249L93.9845 12.0801C94.5144 12.9271 95.7258 13.9058 97.6752 13.9058Z" fill="#F16434"/>
<path d="M103.118 3.81716H102.058V5.92524H103.099V9.8026C103.099 12.4753 104.14 13.7929 106.506 13.7929C107.225 13.7929 107.622 13.6988 107.622 13.6988V11.4778C107.414 11.4966 107.32 11.4966 107.149 11.4966C106.146 11.4966 105.692 11.1954 105.692 9.72731V5.92524H107.547V3.81716H105.692V1.74673H103.118V3.81716Z" fill="#F16434"/>
<path d="M25.9999 25.9565H26.8076V27.9632C26.9502 27.7663 27.1388 27.6071 27.357 27.4996C27.5752 27.3921 27.8164 27.3395 28.0596 27.3464C29.1635 27.3464 29.8961 28.1904 29.8961 29.3819C29.8961 30.5734 29.1111 31.403 28.0072 31.403C27.7676 31.406 27.5305 31.3534 27.3147 31.2494C27.0989 31.1455 26.9102 30.9929 26.7633 30.8037V31.3064H25.9999V25.9565ZM27.9259 30.6947C28.5854 30.6947 29.0812 30.1807 29.0812 29.3912C29.0812 28.6016 28.608 28.066 27.9331 28.066C27.289 28.066 26.7777 28.5472 26.7777 29.3912C26.7777 30.1026 27.215 30.6947 27.9259 30.6947Z" fill="#202020"/>
<path d="M31.1404 32.6308L31.6887 31.2389L30.1548 27.4424H31.0221L32.0663 30.255L33.0951 27.4424H33.9398L31.9213 32.6308H31.1404Z" fill="#202020"/>
<path d="M59.0165 32.1802C59.7009 32.1802 60.1322 31.831 60.4485 31.4081V32.0932H61.3986V26.4126H60.4485V28.617C60.1448 28.2305 59.7135 27.8947 59.0165 27.8947C58.0284 27.8947 57.0772 28.6668 57.0772 30.0245V30.0494C57.0772 31.4081 58.041 32.1802 59.0165 32.1802ZM59.2453 31.3584C58.5989 31.3584 58.041 30.835 58.041 30.0504V30.0255C58.041 29.2161 58.5989 28.7176 59.2453 28.7176C59.8917 28.7176 60.4622 29.2285 60.4622 30.0255V30.0504C60.4612 30.835 59.8917 31.3584 59.2453 31.3584ZM62.5786 27.3474H63.6057V26.4509H62.5786V27.3474ZM62.6166 32.0932H63.5794V27.9828H62.6166V32.0932ZM66.6596 33.3514C67.4073 33.3514 67.9904 33.1773 68.3711 32.8031C68.7265 32.4538 68.9037 31.9439 68.9037 31.2464V27.9828H67.9535V28.5932C67.6245 28.2191 67.1806 27.8957 66.4835 27.8957C65.5081 27.8957 64.5822 28.6056 64.5822 29.8265V29.839C64.5822 31.0474 65.4944 31.7698 66.4835 31.7698C67.1679 31.7698 67.6119 31.4589 67.9535 31.0101V31.3335C67.9535 32.1554 67.4843 32.5917 66.6354 32.5917C66.0649 32.5917 65.583 32.43 65.1401 32.1554L64.7847 32.8653C65.3288 33.1773 65.9626 33.3514 66.6596 33.3514ZM66.7356 30.9718C66.0765 30.9718 65.544 30.5106 65.544 29.8379V29.8131C65.544 29.1404 66.0638 28.6917 66.7356 28.6917C67.3946 28.6917 67.9651 29.1529 67.9651 29.8255V29.8379C67.9651 30.4992 67.3946 30.9718 66.7356 30.9718ZM70.0816 27.3474H71.1087V26.4509H70.0816V27.3474ZM70.1195 32.0932H71.0823V27.9828H70.1195V32.0932ZM73.6933 32.1678C74.0487 32.1678 74.3144 32.0807 74.5548 31.9564V31.1842C74.365 31.2713 74.1742 31.321 73.959 31.321C73.6427 31.321 73.4518 31.1718 73.4518 30.8101V28.7922H74.5675V27.9828H73.4518V26.8489H72.489V27.9828H71.9565V28.7922H72.489V30.9593C72.489 31.8569 72.9836 32.1678 73.6933 32.1678ZM79.0165 32.0932V29.6514C79.0165 28.5549 78.4081 27.9195 77.1785 27.9195C76.4941 27.9195 76.0375 28.0563 75.5819 28.2564L75.8477 29.0161C76.2284 28.8544 76.57 28.7549 77.0393 28.7549C77.6984 28.7549 78.0664 29.0658 78.0664 29.6389V29.7136C77.75 29.6141 77.42 29.5519 76.9127 29.5519C75.9373 29.5519 75.2139 29.9882 75.2139 30.8971V30.9096C75.2139 31.7315 75.911 32.1802 76.7092 32.1802C77.343 32.1802 77.7743 31.919 78.0653 31.5822V32.0932H79.0165ZM78.0917 30.6111C78.0917 31.122 77.6098 31.4703 76.976 31.4703C76.5194 31.4703 76.1651 31.2464 76.1651 30.8598V30.8474C76.1651 30.4484 76.5205 30.2121 77.1279 30.2121C77.4959 30.2121 77.8376 30.2743 78.0907 30.3738V30.6111H78.0917ZM80.1702 32.0932H81.1329V26.4126H80.1702V32.0932Z" fill="#202020"/>
<path fill-rule="evenodd" clip-rule="evenodd" d="M37.7881 20.9067H55.1266V37.9474H37.7881V20.9067ZM41.0962 32.1549H42.059V28.2808L45.1139 32.1549H45.9248V26.6992H44.9747V30.4739L41.9967 26.6992H41.0972V32.1549H41.0962ZM47.534 32.1549H48.5095V30.3982H49.6125C50.8294 30.3982 51.8301 29.7629 51.8301 28.542V28.5295C51.8301 27.433 51.0066 26.6982 49.7137 26.6982H47.534V32.1549ZM48.5105 29.539V27.5833H49.6389C50.3739 27.5833 50.8305 27.9067 50.8305 28.5544V28.5669C50.8305 29.14 50.3739 29.538 49.6389 29.538H48.5105V29.539ZM38.7509 21.854H54.1754V37.0136H38.7509V21.854Z" fill="#F16434"/>
</svg>